<svg width="500" height="500" viewBox="0 0 500 500" fill="none" xmlns="http://www.w3.org/2000/svg">
<mask id="mask0_24_50" style="mask-type:luminance" maskUnits="userSpaceOnUse" x="16" y="50" width="236" height="326">
<path d="M16.1979 50.6667H252V376H16.1979V50.6667Z" fill="white"/>
</mask>
<g mask="url(#mask0_24_50)">
<path d="M251.818 107.042C249.151 103.219 246.589 99.4115 243.516 95.8959C240.464 92.4167 237.229 89.1146 233.807 86.0105C226.891 79.7292 219.297 74.2032 211.219 69.5521C195.193 60.2969 177.292 54.3907 158.943 52.375C140.604 50.3594 121.927 52.448 104.552 58.7292C87.6302 64.8438 72.0833 74.6198 58.974 87.0209C45.8333 99.4584 35.0885 114.573 27.9635 131.307C19.4219 151.37 16.5677 173.417 17.974 195.141C19.0312 211.578 22.3542 227.87 27.4948 243.521C27.4271 244.427 27.3854 245.333 27.3646 246.234C25.8698 240.537 22.4844 235.063 16.8698 233.037C16.4792 232.896 16.1979 233.375 16.3594 233.703C17.526 235.927 18.224 238.271 18.5156 240.755C18.7344 242.604 19.0156 244.307 20.25 245.776C21.9271 247.76 25.2708 249.078 27.0677 251.219C27.2344 251.651 27.3854 252.078 27.5833 252.49C27.7135 253.745 27.9115 255.01 28.1823 256.25C29.2917 261.375 31.5573 266.255 34.7083 270.464C34.3698 270.266 34.0208 270.073 33.6719 269.896C31.9948 269.047 30.2396 268.49 28.4219 268.068C27.4948 267.849 26.5573 267.662 25.6302 267.432C24.7187 267.203 23.7917 266.76 22.8542 266.682C22.8437 266.682 22.8333 266.682 22.8333 266.682C22.8229 266.672 22.8229 266.662 22.8073 266.651C22.6667 266.432 22.276 266.563 22.3646 266.833C23.6146 270.672 26.1354 274.87 30.099 276.328C32.2135 277.104 34.5104 277.115 36.7344 277.156C37.9427 277.177 39.1667 277.177 40.375 277.344C40.9167 277.417 41.4635 277.573 42.0104 277.724C42.0521 277.755 42.0937 277.787 42.1406 277.823C48.3281 289.438 55.5521 300.49 63.724 310.802C69.1406 317.635 74.9687 324.099 81.1667 330.172C81.3854 332.766 81.7031 335.349 82.3125 337.885C82.4844 338.594 82.6719 339.292 82.8906 339.979C81.6458 338.771 80.2656 337.714 78.651 337.026C73.7604 334.943 67.776 336.12 64.0937 339.969C63.6927 340.38 63.8437 340.927 64.2552 341.245C67.3073 343.589 70.9792 344.969 74.8177 345.219C76.8646 345.365 78.8802 345.005 80.9271 345.047C81.2031 345.057 81.4635 345.068 81.724 345.099C80.276 345.115 78.75 345.188 77.3542 345.604C75.9583 346.016 74.9479 346.813 73.9792 347.88C72.6927 349.307 71.2969 350.432 69.4896 351.141C69.2396 351.24 69.1615 351.563 69.4115 351.719C72.0052 353.276 75.3385 353.417 78.0312 352C79.5677 351.193 80.599 349.823 81.9219 348.74C83.1198 347.76 84.4896 347.281 85.9531 347.052C85.974 347.073 85.9948 347.094 86.0156 347.12C86.0729 347.162 86.1146 347.193 86.1667 347.229C88.401 350.901 91.3229 354.146 94.7552 356.766C97.8594 359.13 101.37 360.948 105.104 362.073C109.63 363.432 114.37 363.839 119.062 364.099C117.396 364.406 115.786 364.885 114.312 365.604C112.344 366.563 110.609 367.901 108.703 368.979C106.641 370.146 104.411 370.901 102.078 371.333C101.589 371.422 101.521 372.057 101.807 372.37C105.359 376.359 111.979 376.057 116.708 374.88C119.552 374.172 121.984 372.75 123.891 370.516C125.359 368.797 126.625 366.943 128.38 365.615C133.25 368.448 138.208 371.151 143.208 373.745C142.786 372.797 142.38 371.839 142 370.865C138.547 369.026 135.115 367.13 131.724 365.177C132.24 365.255 132.75 365.339 133.26 365.438C135.802 365.917 138.307 366.563 140.771 367.37C140.531 366.625 140.312 365.875 140.115 365.125C136.604 364.057 132.99 363.302 129.339 362.88C130.375 361.057 130.724 358.682 130.755 356.74C130.807 353.787 130.078 350.802 128.609 348.24C126.875 345.234 124.109 343.49 121.505 341.328C119.083 339.323 116.318 335.75 118.443 332.557C118.922 331.849 118.016 331.162 117.365 331.479C110.849 334.604 108.745 342.672 111.141 349.125C111.797 350.891 112.724 352.537 113.844 354.026C103.219 346.802 93.1667 338.781 83.901 329.844C83.9115 329.734 83.9375 329.625 83.9687 329.505C84.0781 329.438 84.1406 329.328 84.1302 329.188C84.1302 329.146 84.1198 329.089 84.1198 329.047C84.4583 328.229 85.0781 327.479 85.6146 326.813C86.474 325.724 87.3333 324.635 88.1615 323.521C89.9167 321.156 91.5625 318.693 92.7812 316C95.0469 311 95.8021 305.255 93.4479 300.141C93.2604 299.729 92.7187 299.682 92.3594 299.859C89.8542 301.057 87.2812 302.344 85.4635 304.516C84.2083 306.005 83.3594 307.76 82.7917 309.615C83.0104 308.031 83.4583 306.505 84.0677 304.995C85.0365 302.594 86.2917 300.318 87.0833 297.854C88.5781 293.234 87.8906 288.307 85.1458 284.297C84.7865 283.771 83.9271 283.948 83.9271 284.62C83.9271 287.38 82.6406 289.823 81.4427 292.24C80.3281 294.484 79.3698 296.74 79.1406 299.271C78.8906 301.964 79.3698 304.677 79.8802 307.313C79.9375 307.563 79.9792 307.818 80.0365 308.078C77.8542 302.615 74.3594 297.745 70.0781 293.646C67.1667 290.87 63.9323 288.438 60.4896 286.344C60.3437 286.255 60.2031 286.182 60.0729 286.094C58.9167 284.62 58.0469 282.943 57.6094 281.125C56.9375 278.333 57.3802 275.443 56.4896 272.677C55.0156 268.099 51.4792 264.297 46.9635 262.641C46.4323 262.443 45.9844 263.12 46.2448 263.568C47.6302 265.885 47.2031 268.667 47.0729 271.24C46.9531 273.547 47.1302 275.76 48.1094 277.885C48.5156 278.76 49.0156 279.589 49.6042 280.37C49.276 280.188 48.9375 280 48.6094 279.818C47.0729 278.932 45.5833 277.995 44.1458 276.984C43.4115 275.609 42.6927 274.224 41.9844 272.828C37.0729 263.109 32.8906 252.995 29.5208 242.604C32.2656 242.193 34.8177 240.099 36.3229 237.885C37.3125 236.417 37.8594 234.672 38.1406 232.938C38.4323 231.162 38.6302 229.307 38.2917 227.521C38.349 227.26 38.3802 226.99 38.3802 226.714C38.3802 226.443 37.9427 226.281 37.8229 226.563C37.1146 228.177 36.375 229.464 35.0677 230.662C33.9115 231.719 32.5937 232.599 31.474 233.703C30.9375 234.224 30.4479 234.823 30.0312 235.458C30.6458 230.724 31.4062 225.896 31.5573 221.094C35.4062 213.214 33.1042 201.854 24.1302 198.76C23.6823 198.604 23.3958 199.13 23.5729 199.49C24.599 201.682 25.1198 204.057 25.099 206.484C25.0781 208.667 24.8594 210.771 25.6198 212.875C26.8177 216.156 29.2812 218.802 30.099 222.115C29.9115 224.927 29.5521 227.729 29.1615 230.51C28.8125 233.005 28.4323 235.51 28.1042 238.042C25.7865 230.292 23.9115 222.401 22.526 214.422C19.3906 196.328 18.8333 177.537 22.0469 159.412C23.9219 151.031 26.6354 142.849 30.099 134.99C36.1875 121.177 44.5781 108.375 54.875 97.3334C65.3698 86.073 77.8229 76.7448 91.6302 69.9219C105.958 62.849 121.594 58.4323 137.49 56.8334C153.333 55.2396 169.469 56.4271 184.854 60.5573C186.583 61.0261 188.297 61.5313 190.005 62.0625C192.646 63.0417 195.25 64.1094 197.818 65.2657C214.49 72.7448 229.625 83.6563 241.807 97.3959C244.802 100.776 247.906 104.208 250.5 107.927C251.026 108.708 252.417 107.906 251.818 107.042ZM21.6979 246.162C20.8281 245.396 20.1094 244.505 19.7396 243.401C19.3646 242.302 19.3229 241.125 19.1719 239.979C18.9115 238.042 18.3958 236.177 17.6458 234.391C20.3229 235.76 22.3542 238.115 23.7552 240.776C24.9219 242.979 25.6302 245.344 26.3854 247.688C26.0677 247.313 25.7708 246.979 25.5104 246.693C24.6094 245.682 23.6719 244.667 22.8542 243.568C21.9792 242.365 21.7083 240.917 20.9583 239.662C20.9375 239.63 20.8698 239.651 20.8802 239.698C21.3594 240.865 21.4792 242.115 22.026 243.271C22.5573 244.396 23.224 245.375 23.9844 246.344C24.7812 247.38 25.6094 248.406 26.2969 249.516C26.3854 249.656 26.4583 249.802 26.5365 249.943C25.0885 248.526 23.125 247.401 21.6979 246.162ZM73.8021 350.682C75.9375 350.474 77.3229 348.859 79.1198 347.891C80.3594 347.229 81.6927 347.031 83.0521 346.891C81.7552 347.578 80.599 348.63 79.5312 349.714C77.0729 352.208 73.4219 352.995 70.2708 351.453C71.2083 351.021 72.0937 350.484 72.8854 349.807C74.0625 348.807 74.8802 347.401 76.2656 346.641C77.6927 345.854 79.3594 345.734 80.9479 345.677C81.6823 345.656 82.4115 345.604 83.1406 345.625H83.151C81.9948 345.724 80.8437 346.005 79.7604 346.474C77.4948 347.453 76.0885 349.703 73.7917 350.583C73.75 350.604 73.75 350.693 73.8021 350.682ZM82.2917 341.943C78.8021 340.427 74.8385 340.141 71.099 340.479C70.9792 340.49 70.9792 340.656 71.099 340.667C74.7083 341.016 78.3906 341.344 81.6927 342.964C82.125 343.182 82.5521 343.422 82.9531 343.672C80.9375 343.323 78.6406 343.578 76.9531 343.63C72.9948 343.781 69.1823 342.625 65.9271 340.438C69.3333 337.427 74.5677 336.62 78.7031 338.615C80.5885 339.521 82.1354 340.979 83.5417 342.542C83.1302 342.323 82.7031 342.125 82.2917 341.943ZM124.349 367.333C122.484 369.667 120.729 371.802 117.854 372.917C115.307 373.906 112.437 374.276 109.703 374.214C107.469 374.156 105.214 373.703 103.495 372.307C105.151 371.922 106.74 371.359 108.266 370.604C110.24 369.625 111.969 368.271 113.854 367.162C115.786 366.016 117.875 365.297 120.089 364.948C121.286 364.766 122.484 364.688 123.693 364.646C122.047 365.406 120.557 366.464 119.083 367.51C118.604 367.693 118.135 367.87 117.635 367.99C116.359 368.297 114.693 368.839 113.464 368.339C113.224 368.24 113.083 368.62 113.292 368.75C114.182 369.276 115.37 369.375 116.589 369.208C115.63 369.807 114.641 370.365 113.583 370.792C111.62 371.589 109.531 371.99 107.469 372.458C107.458 372.458 107.458 372.469 107.469 372.469C111.427 372.458 115.021 371.182 118.365 369.146C118.943 368.797 119.51 368.438 120.089 368.078C119.578 368.87 119.219 369.724 119.13 370.552C119.13 370.583 119.172 370.594 119.193 370.573C119.927 369.526 120.427 368.37 121.245 367.37C121.943 366.953 122.651 366.552 123.38 366.193C124.38 365.714 125.417 365.287 126.495 365.037C126.505 365.037 126.516 365.037 126.536 365.026C125.734 365.703 125 366.516 124.349 367.333ZM115.859 336.151C115.88 336.089 115.99 335.88 116.135 335.609C116.297 337.156 116.984 338.693 117.932 339.938C120.068 342.734 123.432 344.219 125.755 346.844C127.823 349.198 128.99 352.328 129.167 355.443C129.25 356.938 129.12 358.443 128.76 359.901C128.552 360.719 128.281 361.505 128 362.292C127.354 362.052 126.734 361.766 126.115 361.474C125.974 360.875 125.755 360.287 125.495 359.708C124.859 357.146 124.318 354.484 125.948 352.198C126.068 352.031 125.818 351.859 125.677 351.99C124.328 353.297 123.99 355.469 124.26 357.557C123.24 356.031 121.974 354.604 120.828 353.198C120.396 352.141 119.969 351.063 119.708 349.964C119.38 348.609 119.578 347.453 119.698 346.104C119.708 345.995 119.552 345.974 119.5 346.052C118.401 347.74 118.922 349.917 119.729 351.802C119.51 351.521 119.302 351.229 119.12 350.943C118.333 349.766 117.615 348.49 117.005 347.162C116.937 347.021 116.875 346.891 116.818 346.745C116.698 346.464 116.578 346.182 116.458 345.896C116.448 345.854 116.427 345.823 116.417 345.776C116.297 345.464 116.187 345.156 116.078 344.839C116.068 344.797 116.047 344.755 116.036 344.719C115.948 344.458 115.87 344.198 115.797 343.938C115.568 343.094 115.38 342.245 115.307 341.354C115.141 339.62 115.292 337.823 115.859 336.151ZM112.625 349.057C110.781 344.328 111.5 338.672 114.943 335.109C114.781 335.521 114.661 335.901 114.583 336.151C114.01 337.964 113.943 339.912 114.203 341.787C114.573 344.417 115.62 346.953 116.995 349.276C117.005 349.297 117.016 349.318 117.026 349.344C116.089 348.859 115.042 348.568 114.182 348.479C114.161 348.479 114.161 348.51 114.182 348.51C115.26 348.729 116.266 349.177 117.135 349.854C117.245 349.943 117.354 350.026 117.453 350.125C118.422 351.849 119.589 353.448 120.797 355.031C121.146 355.49 121.484 355.948 121.823 356.417C120.849 355.792 119.76 355.37 118.693 355.25C118.521 355.229 118.484 355.51 118.651 355.552C121.297 356.229 122.943 358.563 124.479 360.667C124.068 360.448 123.641 360.229 123.24 360.01C121.635 359.162 120.089 358.182 118.672 357.047C116.047 354.922 113.844 352.208 112.625 349.057ZM108.974 353.234C113.516 356.417 118.172 359.432 122.901 362.323C115.651 361.885 108.323 361.646 101.687 358.484C96.7708 356.141 92.4896 352.51 89.3385 348.089C88.9687 347.469 88.5573 346.844 88.1302 346.255C87.3437 344.969 86.651 343.63 86.0625 342.245C84.7292 339.12 84.0312 335.859 83.6198 332.547C91.5208 340.057 100.005 346.964 108.974 353.234ZM83.401 312.219C83.901 309.797 84.776 307.37 86.4323 305.495C88.0208 303.682 90.1667 302.583 92.3125 301.594C94.3854 307.021 92.6615 313.068 89.8281 317.906C88.3385 320.448 86.5521 322.802 84.7187 325.104C84.4792 325.406 84.2083 325.734 83.9375 326.073C84.0104 325.224 84.1979 324.38 84.3698 323.542C84.776 321.625 85.276 319.75 85.9167 317.896C87.2396 314.115 89.1771 310.662 90.974 307.109C91.0521 306.953 90.8542 306.781 90.724 306.922C87.7708 309.943 85.8073 313.917 84.3958 317.885C83.7812 319.599 83.2396 321.365 82.8906 323.151C82.651 319.49 82.6615 315.818 83.401 312.219ZM80.3281 299.25C80.7344 295.24 83.349 291.938 84.5677 288.208C84.3594 289.984 83.9792 291.74 83.5677 293.516C83.2604 294.802 82.9531 296.089 82.7917 297.406C82.6042 298.891 82.6823 300.25 82.8594 301.734C82.8906 301.984 83.2708 302.005 83.2604 301.734C83.1406 297.245 85.474 292.828 85.6667 288.359C86.8229 291.839 86.5156 295.599 85.099 299.141C83.7917 302.422 81.7448 305.964 81.4635 309.583C81.3437 308.958 81.224 308.349 81.1146 307.76C80.6146 304.958 80.0469 302.115 80.3281 299.25ZM55.4844 275.162C55.8802 277.896 55.4844 280.62 56.5677 283.24C56.7292 283.641 56.9115 284.021 57.1198 284.406C56.3385 283.979 55.5521 283.552 54.7656 283.141C53.5885 281.427 52.5 279.698 51.7812 277.745C51.0937 275.87 50.9115 273.922 50.8906 271.927C50.8646 270.073 50.8229 268.167 50.1354 266.422C50.0469 266.193 49.9531 265.964 49.8333 265.724C52.8281 268 54.9427 271.391 55.4844 275.162ZM48.7552 276.359C47.5312 272.755 48.9271 268.828 48.1667 265.224C48.3385 265.438 48.5 265.682 48.6458 265.953C49.0469 266.724 49.2656 267.568 49.4167 268.427C49.7448 270.333 49.724 272.287 50.1458 274.182C50.8229 277.234 52.151 280.469 54.2344 282.854C53.9479 282.703 53.6562 282.552 53.375 282.401C51.3333 280.818 49.6146 278.922 48.7552 276.359ZM63.5729 290.662C69.4115 294.932 74.5521 300.526 77.5052 307.182C76.5833 305.896 75.5156 304.729 74.349 303.781C73.0052 302.703 71.4948 301.833 69.8385 301.344C67.7865 300.729 65.6302 300.787 63.5156 300.849C63.2135 300.865 62.974 301.146 63.0573 301.464C64.0312 304.927 66.6875 307.672 70.099 308.818C72.2135 309.526 74.4896 309.635 76.6042 310.344C77.276 310.573 77.9844 310.901 78.6302 311.323C78.901 311.88 79.1719 312.448 79.4479 313.016C80.5052 317.573 80.6562 322.266 80.9271 326.943C79.1615 325.167 77.4219 323.359 75.7187 321.516C64.2344 309.078 54.2656 295.26 46.0052 280.438C51.7812 283.969 58.0885 286.662 63.5729 290.662ZM67.375 304.031C70.0208 305.266 72.7135 306.344 75.25 307.807C76.1458 308.318 76.875 308.875 77.5052 309.573C76.2865 309.078 74.9479 308.766 73.6615 308.526C71.5365 308.12 69.4635 307.662 67.6875 306.354C66.1302 305.208 64.9323 303.578 64.2031 301.776C65.9583 301.724 67.7344 301.714 69.4323 302.172C71.1771 302.641 72.7552 303.578 74.1094 304.766C75.1094 305.646 75.9167 306.63 76.6146 307.672C76.5156 307.609 76.4167 307.552 76.3177 307.49C73.5937 305.932 70.5 304.557 67.4271 303.859C67.3437 303.859 67.276 303.99 67.375 304.031ZM26.4375 212.776C25.5312 210.344 26.0885 207.927 25.9792 205.417C25.8958 203.599 25.5 201.833 24.8698 200.146C28.0052 201.714 30.3698 204.615 31.4635 207.938C32.5729 211.313 32.3333 214.714 31.526 218.052C31.4479 215.412 31.1562 212.797 30.4896 210.203C29.9896 208.219 29.1823 206.412 28.125 204.656C27.9844 204.427 27.5625 204.568 27.6719 204.854C29.2187 208.875 30.099 213.104 30.1771 217.406C30.1875 218.214 30.1875 219.01 30.1667 219.818C29.1302 217.406 27.3073 215.13 26.4375 212.776ZM38.8698 276.01C36.5625 275.818 34.2187 276.031 31.9271 275.578C29.7292 275.13 27.8854 273.932 26.4271 272.229C25.1198 270.703 24.224 268.917 23.1719 267.229C24.3594 268 26.1198 268.297 27.3958 268.677C29.3021 269.245 31.1979 269.823 32.9844 270.703C34.3802 271.391 35.7083 272.229 36.9531 273.177C36.9844 273.224 37.0312 273.255 37.0625 273.297C36.7448 273.188 36.4271 273.089 36.125 272.995C33.1927 272.089 30.2187 271.87 27.4531 270.443C27.3854 270.412 27.3229 270.484 27.375 270.542C29.4115 272.417 32.3125 273.068 34.8594 273.953C36.5365 274.531 38.1094 275.302 39.6771 276.089C39.3958 276.057 39.1198 276.031 38.8698 276.01ZM29.6875 237.974C29.7812 237.682 29.8906 237.396 30.0208 237.115C30.7656 235.521 31.974 234.333 33.3125 233.224C34.4479 232.287 35.9479 231.208 37.0156 229.912C35.8958 233.037 33.5 235.521 31.1146 237.885C31.0781 237.922 31.1354 237.974 31.1667 237.943C33.651 235.828 36.375 233.396 37.4948 230.302C37.4323 231.021 37.3542 231.74 37.224 232.448C36.9115 234.063 36.3854 235.609 35.4948 236.995C33.9583 239.38 31.7448 240.578 29.3229 241.745C29.4115 240.49 29.5312 239.24 29.6875 237.974ZM33.1042 258.703C35.1875 263.74 37.4531 268.677 39.8958 273.537C39.2969 272.984 38.7187 272.396 38.1615 271.781C35.3385 268.688 33.0729 265.068 31.526 261.177C29.8594 256.969 29.1927 252.646 29.099 248.26C30.349 251.771 31.6875 255.26 33.1042 258.703Z" fill="white"/>
</g>
<path d="M390.776 382.432C385.849 385.677 379.693 385.417 374.083 384.786C368.198 384.12 362.141 383.083 356.365 384.927C355.375 385.245 354.391 385.646 353.469 386.125C353.411 386.115 353.37 386.104 353.313 386.094C353.25 386.172 353.172 386.245 353.099 386.323C351.594 387.161 350.219 388.219 349.109 389.557C348.302 390.516 349.688 391.911 350.495 390.943C353.891 386.865 359.406 385.734 364.474 385.833C370.604 385.953 376.677 387.599 382.833 387.01C385.729 386.724 388.573 385.995 391.089 384.51C389.839 389.964 385.229 393.844 380.849 396.885C376.521 399.891 371.891 402.224 366.75 403.469C362 404.609 356.964 404.906 352.115 404.328C346.995 403.719 342.526 401.776 337.625 400.458C336.969 400.281 336.391 401.156 336.938 401.635C340.807 405.078 346.703 406.563 351.724 407.161C357.391 407.839 363.141 407.333 368.599 405.646C374.036 403.969 379.135 401.135 383.344 397.286C387.214 393.755 390.776 389.896 391.474 384.526C391.484 384.427 391.417 384.37 391.344 384.349C391.484 384.26 391.625 384.188 391.755 384.099C392.813 383.422 391.833 381.734 390.776 382.432Z" fill="white"/>
<path d="M472.885 131.24C465.813 114.464 455.146 99.2917 442.094 86.8229C429.073 74.3906 413.635 64.5781 396.833 58.4427C379.573 52.1458 361.031 50.0417 342.823 52.0677C324.594 54.0938 306.823 60.0156 290.911 69.3021C282.896 73.974 275.354 79.5104 268.49 85.8125C265.089 88.9271 261.875 92.2448 258.849 95.7292C255.786 99.25 253.245 103.078 250.599 106.911C250 107.776 251.396 108.589 251.984 107.74C254.552 104.026 257.651 100.578 260.615 97.1927C272.698 83.4115 287.734 72.4688 304.281 64.974C320.891 57.4531 339.052 53.4531 357.224 53.5729C375.063 53.7031 392.682 58.0104 408.698 65.9948C416.589 69.9323 424.063 74.7031 431.016 80.1771C432.682 81.5625 434.313 83 435.906 84.4688C447.38 95.1198 456.729 107.906 463.615 121.953C470.911 136.854 475.49 153.083 477.323 169.573C479.339 187.63 477.974 205.813 473.943 223.5C472.417 230.203 470.552 236.807 468.484 243.359C468.203 241.115 467.948 238.87 467.766 236.609C467.568 234.151 467.458 231.677 467.505 229.224C468.125 227.88 469.083 226.714 470.141 225.427C471.635 223.63 472.776 221.625 473.365 219.349C473.995 216.906 473.964 214.365 474.151 211.87C474.25 210.594 474.401 209.333 474.75 208.099C475.078 206.901 475.771 205.896 476.167 204.745C476.229 204.547 475.969 204.307 475.786 204.448C475.688 204.526 475.599 204.599 475.51 204.688C475.5 204.688 475.479 204.698 475.469 204.698C470.021 206.932 465.094 210.76 463.495 216.677C461.792 222.99 465.182 228.776 465.901 234.943C466.172 239.052 466.74 243.141 467.255 247.229C464.266 256.286 460.911 265.224 457.49 274.115C456.693 276.188 455.891 278.255 455.094 280.328C455.047 280.438 455.047 280.526 455.083 280.599C452.839 284.677 450.464 288.677 447.969 292.589C446.552 293.344 445.115 294.063 443.688 294.76C442.391 295.391 441.047 296.01 439.708 296.635C440.589 295.828 441.396 294.922 442.135 293.995C445.755 290.964 448.839 287.109 450.682 282.953C452.542 278.724 454.286 270.891 449.026 268.24C448.719 268.089 448.38 268.276 448.359 268.625C448.208 271.13 446.505 273.104 445.078 275.042C443.62 277.026 442.521 279.172 442.042 281.604C441.516 284.26 442.063 286.99 441.563 289.635C441.323 290.922 440.906 292.188 440.286 293.344C439.797 294.266 439.12 295.073 438.552 295.948C438.224 296.229 437.901 296.526 437.573 296.818C436.625 297.547 435.646 298.224 434.688 298.953C425.401 303.313 416.141 308.391 411.5 317.625C411.531 317.396 411.563 317.177 411.583 316.948C412.052 315.891 412.719 314.901 413.349 313.953C414.297 312.5 415.333 311.109 416.458 309.776C418.505 307.349 421.13 305.385 422.917 302.75C426.646 297.276 426.635 290.365 426.177 284.021C426.151 283.672 425.76 283.578 425.552 283.74C425.5 283.729 425.432 283.729 425.38 283.75C422.068 284.906 419.167 287.698 416.891 290.302C414.526 293.005 412.469 296.109 411.51 299.609C410.516 303.203 410.625 307.021 410.615 310.714C410.604 312.656 410.583 314.594 410.411 316.526C410.276 317.896 409.964 319.24 409.714 320.589C408.349 316.198 405.583 312.328 404.885 307.719C404.828 307.391 404.505 307.349 404.286 307.5C404.229 307.51 404.177 307.531 404.12 307.578C399.948 311.193 398.839 316.969 400.078 322.224C400.797 325.276 402.453 327.88 404.078 330.521C405.016 332.031 405.922 333.594 406.484 335.281C406.802 336.208 407.052 337.198 407.13 338.172C407.141 338.313 407.151 338.453 407.151 338.583C407.099 339 407.042 339.401 406.979 339.818C397.521 347.87 387.396 355.104 376.818 361.625C374.453 363.073 372.068 364.5 369.667 365.885C369.214 366.984 368.656 368.042 368.047 369.057C368.01 369.115 367.979 369.156 367.948 369.208C376.359 364.479 384.573 359.38 392.484 353.786C397.255 350.411 401.901 346.854 406.375 343.12C406.271 343.63 406.151 344.141 406.016 344.646C404.917 347.052 403.818 349.464 402.641 351.828C401.344 354.453 399.859 356.958 397.943 359.172C397.255 359.828 396.594 360.5 395.958 361.208C391.885 365.005 386.797 367.563 381.479 369.146C378.188 370.115 374.802 370.734 371.401 371.141C369.833 371.182 368.266 371.161 366.693 371.12C366.333 371.641 365.953 372.161 365.563 372.667C370.714 372.849 375.839 372.849 380.88 371.599C385.37 376.469 391.776 379 398.391 378.125C405.266 377.219 409.927 372.5 415.573 368.995C415.932 368.776 415.823 368.068 415.333 368.12C415.271 368.13 415.214 368.141 415.151 368.151C415.104 368.109 415.042 368.089 414.974 368.099C411.891 368.729 409.177 369.604 405.964 369.526C403.052 369.458 400.188 369.005 397.302 368.677C394.948 368.417 391.917 368.089 389.063 368.37C389.891 367.922 390.708 367.443 391.505 366.943C394.667 368.089 398.552 367.76 401.734 367.021C405.125 366.234 408.286 364.62 410.964 362.396C413.536 360.26 415.661 357.547 417.089 354.516C418.755 350.984 419.047 346.464 422.786 344.339C422.854 344.307 422.885 344.24 422.896 344.177C423.104 344.188 423.146 343.828 422.938 343.792C419.703 343.203 417.359 345.583 415.375 347.781C414.125 349.177 412.849 350.411 411.182 351.281C409.635 352.099 407.969 352.667 406.375 353.385C405.375 353.833 404.406 354.344 403.479 354.911C405.682 351.411 407.271 347.542 408.167 343.51C408.328 342.76 408.469 341.995 408.599 341.234C416.948 334.094 424.734 326.323 431.906 317.943C437.313 318.281 442.344 317.625 447.073 314.531C447.182 314.453 447.234 314.354 447.25 314.255C447.859 314.063 448.198 313.776 448.568 313.156C448.807 312.74 448.5 312.078 447.979 312.13C444.479 312.5 441.188 311.531 437.891 310.641C442.016 305.344 445.906 299.849 449.536 294.182C450.646 294.115 451.771 294.214 452.88 294.281C454.354 294.365 455.802 294.344 457.25 294.063C459.865 293.547 462.318 292.286 464.302 290.521C465.422 289.526 466.38 288.349 467.135 287.052C467.359 286.661 466.938 286.302 466.599 286.411C466.469 286.344 466.307 286.344 466.151 286.411C464.953 286.943 463.615 287.042 462.339 287.219C461.182 287.37 460.042 287.563 458.906 287.828C458.677 287.88 458.458 287.938 458.229 288C458.479 287.792 458.745 287.589 458.995 287.37C461.599 285.135 463.885 282.531 465.63 279.563C468.083 275.411 469.333 270.724 469.823 265.953C469.979 264.427 470.063 262.901 470.073 261.375C470.771 259.87 472.417 258.693 473.781 257.974C475.88 256.849 477.755 255.807 479.161 253.823C481.995 249.802 482.823 244.448 482.167 239.661C482.104 239.182 481.339 239.12 481.135 239.531C479.073 243.76 475.318 246.74 472.667 250.552C471.557 252.167 470.599 254.005 469.901 255.948C469.859 255.302 469.813 254.672 469.76 254.026C476.917 235.25 481.557 215.349 482.833 195.229C484.198 173.474 481.365 151.37 472.885 131.24ZM442.271 290.943C443.073 288.089 442.432 285.135 442.922 282.245C443.401 279.422 444.776 277.125 446.432 274.844C447.661 273.156 448.849 271.422 449.156 269.354C451.042 270.651 451.604 273.198 451.583 275.401C451.552 278.422 450.635 281.406 449.255 284.078C448 286.484 446.354 288.656 444.479 290.615C445.703 288.609 446.672 286.474 447.479 284.276C448.349 281.875 449.229 279.203 449.438 276.646C449.469 276.25 448.938 276.25 448.807 276.557C447.901 278.771 447.401 281.156 446.573 283.401C445.714 285.745 444.698 288.047 443.391 290.182C442.859 291.063 442.271 291.927 441.625 292.745C441.885 292.141 442.104 291.521 442.271 290.943ZM411.74 314.604C412.031 313.646 412.271 312.656 412.589 311.75C413.266 309.813 413.938 307.87 414.714 305.953C416.281 302.026 418.208 298.266 419.964 294.432C420.042 294.255 419.813 294.115 419.703 294.281C417.391 297.724 415.682 301.536 414.146 305.375C413.385 307.281 412.667 309.208 412.052 311.172C411.979 311.422 411.891 311.672 411.813 311.927C411.87 308.297 411.719 304.62 412.458 301.047C413.229 297.297 415.063 294.115 417.589 291.26C418.755 289.943 420.031 288.729 421.401 287.63C422.698 286.583 424.104 285.714 425.401 284.677C425.292 291.109 425.391 298.292 420.99 303.443C418.953 305.844 416.552 307.859 414.625 310.365C413.667 311.62 412.786 312.927 411.99 314.302C411.911 314.443 411.823 314.583 411.75 314.714C411.729 314.682 411.74 314.651 411.74 314.604ZM391.875 369.833C394.771 369.823 397.661 370.203 400.547 370.464C403.458 370.734 407.182 371.12 410.453 370.484C410.125 370.734 409.797 371 409.474 371.271C406.74 373.495 404.078 375.443 400.615 376.406C394.141 378.182 387.297 376.177 382.448 371.708C384.052 371.979 385.688 372.057 387.276 372.438C388.391 372.698 389.479 373.026 390.578 373.297C392.255 374.224 394.172 375.141 396.026 375.021C396.115 375.01 396.146 374.865 396.047 374.844C394.87 374.604 393.76 374.172 392.661 373.724C392.703 373.734 392.745 373.734 392.792 373.745C396.188 374.234 399.578 373.844 402.943 373.307C403 373.297 402.99 373.198 402.932 373.208C398.901 373.557 394.771 373.724 390.807 372.74C390.406 372.646 389.979 372.51 389.552 372.37C391.536 372.49 393.599 372.188 395.307 371.411C395.448 371.349 395.385 371.104 395.229 371.12C393.813 371.292 392.422 371.609 390.995 371.682C389.781 371.75 388.573 371.672 387.365 371.62C386.599 371.37 385.828 371.141 385.063 370.984C387.297 370.453 389.443 369.844 391.875 369.833ZM406.573 354.531C409.495 353.219 412.427 352.177 414.693 349.823C416.75 347.682 418.755 344.49 421.938 344.208C419.313 345.625 418.266 348.656 417.25 351.349C415.964 354.781 414.245 357.865 411.62 360.448C409.026 363 405.854 364.828 402.38 365.854C400.516 366.396 398.599 366.703 396.656 366.745C395.406 366.781 394.172 366.661 392.932 366.542C393.479 366.016 393.958 365.417 394.458 364.859C395.385 364.141 396.276 363.37 397.125 362.573C397.411 362.385 397.693 362.203 397.979 362.026C398.651 361.625 399.349 361.255 400.047 360.906C402.25 360.917 404.427 360.688 406.255 359.302C406.333 359.25 406.292 359.12 406.193 359.151C404.719 359.609 403.219 359.911 401.703 360.141C402.573 359.75 403.448 359.38 404.328 359.01C408.349 357.276 412.438 355.271 414.813 351.432C414.854 351.37 414.745 351.302 414.703 351.37C411.672 355.323 406.724 356.797 402.323 358.625C401.505 358.964 400.703 359.323 399.917 359.708C400.604 358.922 401.255 358.104 401.891 357.266C403.339 356.198 404.906 355.281 406.573 354.531ZM408.031 330.583C407.76 328.979 407.349 327.401 406.781 325.865C405.464 322.281 403.599 319.052 404.458 315.109C404.516 314.88 404.198 314.724 404.068 314.943C402.26 318.063 403.839 321.844 405.068 324.859C406.203 327.63 406.932 330.505 407.229 333.464C407.063 333.078 406.891 332.708 406.714 332.38C405.234 329.427 403.068 326.813 401.901 323.708C400.026 318.714 400.557 312.547 404.12 308.417C404.875 312.719 407.359 316.438 408.536 320.609C408.896 321.865 409.057 323.109 409.089 324.349C408.609 326.385 408.297 328.479 408.031 330.583ZM425.458 321.995C420.271 327.672 414.766 333.016 409.026 338.036C409.427 334.703 409.677 331.349 410.193 328.031C410.344 327.042 410.531 326.063 410.745 325.089C411.271 323.609 411.87 322.172 412.557 320.755C413.078 320.25 413.599 319.75 414.234 319.349C415.432 318.573 416.818 318.052 418.188 317.714C421.807 316.828 425.578 317.344 429.224 317.734C427.984 319.172 426.74 320.589 425.458 321.995ZM446.583 313.703C446.552 313.734 446.531 313.766 446.505 313.786C446.432 313.865 446.396 313.964 446.411 314.052C443.182 316.047 439.641 317.167 435.828 317.255C434.74 317.276 433.651 317.234 432.573 317.146C432.583 317.135 432.594 317.125 432.594 317.115C431.708 317.068 430.828 317.016 429.969 316.885C429.969 316.896 429.958 316.896 429.958 316.906C428.125 316.708 426.307 316.49 424.464 316.417C421.979 316.307 418.146 316.536 415.115 317.766C418.198 315.927 421.427 314.724 425.219 314.464C429.719 314.146 434.172 315.229 438.672 314.974C438.703 314.974 438.703 314.922 438.672 314.922C435.755 315.083 433.005 314.333 430.13 313.984C428.063 313.734 426.01 313.932 423.953 314.214C421.76 314.521 419.365 314.943 417.177 315.792C421.339 312.828 426.068 310.583 431.286 310.724C431.479 310.724 431.677 310.75 431.875 310.76C432.005 310.76 432.125 310.76 432.255 310.76C432.276 310.76 432.286 310.75 432.307 310.75C433.922 310.813 435.458 311.25 436.953 311.792L436.964 311.781C440.146 312.729 443.292 313.906 446.583 313.703ZM435.547 310.073C433.302 309.536 431.016 309.188 428.625 309.474C423.266 310.104 418.297 312.708 414.776 316.766C414.833 316.677 414.885 316.578 414.953 316.49C417.12 313.125 419.792 310.094 422.844 307.51C428.313 303.651 434.531 300.948 440.578 298.146C442.411 297.297 444.24 296.438 446.047 295.542C442.76 300.526 439.25 305.375 435.547 310.073ZM473.385 210.563C473.026 213.406 473.224 216.328 472.495 219.12C471.755 221.964 470.083 224.021 468.307 226.271C468.068 226.573 467.818 226.901 467.578 227.25C467.875 221.615 469.016 216.099 471.646 210.932C472.328 209.594 473.135 208.349 474.063 207.182C473.693 208.328 473.505 209.563 473.385 210.563ZM465.75 228.24C465.729 228.807 465.729 229.365 465.719 229.932C465.49 229.047 465.24 228.167 464.984 227.292C464.135 224.229 463.427 221.156 464.036 217.984C465.104 212.37 469.172 208.719 473.964 206.224C471.271 208.786 469.203 211.828 467.948 215.359C466.49 219.479 465.891 223.88 465.75 228.24ZM462.297 288.13C463.464 287.979 464.635 287.859 465.75 287.51C464.484 289.333 462.776 290.823 460.802 291.859C459.672 292.458 458.458 292.906 457.208 293.177C455.865 293.474 454.516 293.505 453.141 293.438C452.193 293.385 451.245 293.307 450.297 293.307L450.307 293.297C450.776 293.036 451.245 292.766 451.714 292.49C451.802 292.469 451.901 292.448 452 292.427C453.167 292.198 454.344 292.068 455.505 291.839C457.677 291.401 460.083 290.604 461.958 289.417C462.021 289.375 461.969 289.276 461.891 289.307C460.682 289.896 459.536 290.573 458.229 290.943C456.969 291.302 455.661 291.521 454.354 291.672C453.885 291.729 453.37 291.76 452.839 291.807C453.958 291.12 455.047 290.385 456.12 289.625C458.109 288.865 460.224 288.406 462.297 288.13ZM461.021 282.922C458.406 285.885 455.266 288.286 451.911 290.344C458.016 280.359 463.328 269.865 467.786 259C467.938 258.63 468.083 258.271 468.234 257.896C468.573 266.859 467.156 275.979 461.021 282.922ZM478.016 248.828C475.849 250.323 473.953 251.969 472.375 254.094C471.797 254.87 471.271 255.672 470.781 256.505C471.458 254.375 472.438 252.359 473.854 250.453C476.135 247.391 479.099 244.885 481.167 241.682C481.266 243.859 481.026 246.026 480.417 248.141C479.698 250.615 478.531 253.224 476.516 254.911C474.781 256.359 472.464 256.917 470.76 258.401C470.88 258.125 471 257.854 471.141 257.594C471.698 256.516 472.344 255.49 473.036 254.495C474.479 252.469 476.177 250.51 478.063 248.906C478.104 248.865 478.063 248.797 478.016 248.828Z" fill="white"/>
<path d="M163.312 405.656C161.818 407.01 160.917 408.896 159.443 410.313C157.854 411.849 155.979 413.089 153.964 414.005C150.38 415.62 144.375 416.859 140.974 414.182C143.687 412.177 145.042 408.99 147.307 406.531C150.651 402.901 155.083 402.104 159.75 401.578C159.802 401.568 159.849 401.557 159.891 401.536C160.187 401.656 160.479 401.786 160.76 401.927C161.016 402.063 161.297 401.734 161.078 401.526C157.974 398.552 154.323 398.615 150.24 398.964C145.302 399.391 140.302 399.813 135.385 398.891C130.474 397.964 126.573 395.573 122.943 392.229C120.547 390.016 117.943 387.193 114.75 386.063C120.62 385.198 126.135 382.531 132.083 381.964C135.245 381.667 138.406 381.964 141.443 382.88C144.484 383.792 147.219 385.734 150.281 386.443C150.51 386.495 150.76 386.234 150.609 386.005C149.036 383.693 145.99 382.573 143.406 381.776C140.323 380.839 136.88 380.547 133.677 380.75C126.953 381.208 120.635 384.151 114.151 385.854C113.833 385.766 113.505 385.688 113.182 385.635C112.833 385.578 112.604 385.953 112.797 386.203C112.776 386.224 112.786 386.255 112.823 386.255C112.833 386.255 112.844 386.255 112.865 386.255C112.875 386.266 112.896 386.292 112.906 386.302C116.635 388.688 119.531 391.479 122.714 394.516C125.766 397.427 129.177 399.5 133.307 400.49C137.542 401.505 141.969 401.516 146.281 401.188C148.656 401.016 151.219 400.63 153.745 400.589C151.891 401.099 150.141 402.016 148.625 403.151C144.854 405.984 143.526 411.141 139.354 413.417C138.896 413.667 138.896 414.255 139.198 414.604C142.531 418.443 148.984 417.635 153.255 416.052C157.219 414.594 163.422 410.745 164.13 406.135C164.219 405.656 163.703 405.297 163.312 405.656Z" fill="white"/>
<path d="M156.875 395.51C155.359 394.083 153.667 392.99 151.859 392.13C151.818 392.068 151.76 392.01 151.687 391.958C148.276 389.714 144.547 385.974 140.255 385.807C140.135 385.807 140.115 385.995 140.224 386.016C143.469 386.635 145.521 388.766 147.818 390.651C145.88 390.104 143.875 389.724 141.859 389.438C135.964 388.599 129.969 388.328 124.031 388.271C123.823 388.271 123.771 388.609 123.979 388.646C128.339 389.255 132.74 389.547 137.109 390.146C134.687 390.563 132.271 391.563 130.375 392.599C130.125 392.74 130.344 393.125 130.604 392.99C132.323 392.078 134.135 391.38 136.062 391.021C137.672 390.714 139.234 390.823 140.823 390.755C142.651 391.12 144.453 391.573 146.219 392.13C143.818 392.229 141.453 392.87 139.656 393.943C139.495 394.036 139.604 394.333 139.786 394.255C142.339 393.188 145.375 393.135 148.078 393.625C150.411 394.047 152.536 395.141 154.833 395.708C154.922 395.729 155 395.708 155.052 395.651C155.469 395.849 155.88 396.042 156.297 396.25C156.766 396.469 157.276 395.891 156.875 395.51Z" fill="white"/>
<path d="M162.333 403.25C160.151 402.443 158.094 403.948 156.5 405.328C153.594 407.87 150.693 410.214 147.406 412.25C147.167 412.401 147.38 412.786 147.635 412.641C149.984 411.214 152.219 409.646 154.401 407.969C156.979 405.974 158.865 404.37 162.234 403.99C162.646 403.958 162.745 403.411 162.333 403.25Z" fill="white"/>
<path d="M380.062 389.833C375.901 390.495 371.88 391.302 367.641 391.26C364.703 391.224 361.792 390.974 358.859 391.073C361.474 389.844 363.885 388.219 366.823 387.828C366.99 387.802 367.052 387.573 366.87 387.521C365.146 387.042 363.698 387.693 362.193 388.589C360.615 389.526 359.068 390.385 357.453 391.161C357.26 391.172 357.052 391.182 356.854 391.203C353.62 391.531 350.396 392.24 347.375 393.474C344.792 394.531 341.854 395.76 340.13 398.047C340.042 398.156 340.187 398.312 340.307 398.276C341.984 397.854 343.573 397.099 345.167 396.349C350.016 396.359 354.089 400.198 359.057 400.24C359.167 400.24 359.198 400.057 359.089 400.031C354.885 399.312 351.094 396.099 346.896 395.531C347.714 395.161 348.542 394.812 349.391 394.542C352.354 393.568 355.406 392.958 358.51 392.776C360.495 393.437 362.37 394.354 364.406 394.901C366.76 395.531 369.115 395.411 371.432 394.745C371.479 394.734 371.458 394.672 371.411 394.682C367.958 395.37 365.182 394.516 362.052 393.146C361.703 392.99 361.365 392.849 361.031 392.698C367.521 392.62 374.062 392.979 380.229 390.422C380.599 390.276 380.469 389.776 380.062 389.833Z" fill="white"/>
<path d="M335.469 348.578C334.823 346.833 333.974 345.188 333.234 343.479C332.385 341.516 332.177 339.531 331.599 337.557C332.146 337.115 331.568 336.13 330.839 336.286C321.75 338.135 316.63 346.734 316.714 355.5C316.771 360.667 317.948 365.875 317.193 371.042C316.552 375.531 313.969 379.693 310.448 382.594C310.318 382.734 310.187 382.865 310.047 383.01C309.479 383.693 308.87 384.339 308.229 384.917C308.38 385.099 308.651 385.208 308.948 385.078C312.969 383.323 315.995 380.536 317.839 376.469C319.854 372.031 319.776 367.26 319.297 362.521C318.776 357.307 317.781 351.563 320.214 346.661C322.359 342.344 326.12 340.057 330.281 338.156C330.094 340.458 331.359 343.021 332.229 344.995C333.932 348.818 335.37 352.406 335.151 356.677C334.953 360.547 333.656 364.318 331.349 367.432C329.922 369.375 328.156 370.734 326.339 372.089C327.078 370.953 327.687 369.734 328.125 368.38C328.484 367.271 328.677 366.125 328.786 364.969C329.182 364.141 329.661 363.333 330.214 362.516C331.151 361.146 331.948 359.969 332.276 358.313C332.297 358.203 332.146 358.125 332.089 358.234C331.281 359.75 329.953 361.297 328.885 362.932C328.896 361.516 328.823 360.099 328.724 358.714C328.474 355.203 327.917 351.75 326.849 348.38C326.807 348.24 326.568 348.25 326.578 348.417C326.849 351.38 327.24 354.521 327.38 357.646C326.729 356.151 325.812 354.781 324.667 353.667C324.516 353.526 324.255 353.714 324.375 353.896C325.474 355.62 326.75 357.318 327.437 359.25C327.479 361.932 327.297 364.578 326.641 367.083C326.13 369.057 325.151 370.802 323.927 372.406C324.625 369.943 324.307 367.161 322.948 365.047C322.896 364.969 322.76 365.016 322.797 365.115C323.964 369.177 323.078 372.599 320.604 375.911C320.562 375.979 320.542 376.031 320.531 376.089C319.297 377.255 318.01 378.354 316.802 379.422C316.443 379.75 316.911 380.37 317.323 380.099C319.667 378.583 322.01 376.927 323.974 374.953C330.531 373.766 335.422 365.854 336.49 359.828C337.156 356.099 336.807 352.188 335.469 348.578Z" fill="white"/>
<path d="M353.479 419.932C348.531 417.677 346.276 412.698 342.203 409.396C338.375 406.302 333.453 404.839 328.583 405.526C327.786 405.635 328.016 406.865 328.766 406.875C334.615 407 339.521 408.979 343.604 413.177C346.396 416.031 349.281 419.411 353.323 420.307C353.531 420.359 353.708 420.031 353.479 419.932Z" fill="white"/>
<path d="M352.771 420.318C349.641 420.068 346.307 421.047 343.151 421.219C339.849 421.406 336.49 421.266 333.286 420.38C327.859 418.891 323.656 415.443 321.172 410.422C320.745 409.547 319.375 410.156 319.625 411.073C321.182 416.63 326.5 420.219 331.807 421.714C335.172 422.661 338.745 422.813 342.224 422.573C345.62 422.344 349.75 422.125 352.87 420.729C353.109 420.63 352.964 420.339 352.771 420.318Z" fill="white"/>
<path d="M341.156 415.771C336.151 411.26 328.667 407.839 321.922 409.734C321.422 409.875 321.5 410.755 322.052 410.682C324.865 410.313 327.62 410.651 330.312 411.38C331.099 411.969 331.786 412.688 332.448 413.396C333.594 414.594 334.781 415.99 336.479 416.281C336.688 416.318 336.818 416.052 336.62 415.932C334.771 414.724 333.203 413.057 331.469 411.708C331.729 411.781 331.99 411.87 332.255 411.958C335.339 412.979 338.016 414.813 341.036 415.948C341.146 415.99 341.229 415.849 341.156 415.771Z" fill="white"/>
<path d="M214.01 379.74C212.125 374.365 208.135 370.094 203.094 367.531C202.604 367.281 201.766 367.573 201.849 368.25C202.318 372.057 200.609 375.531 199.641 379.13C198.427 369.568 193.167 359.432 182.531 359.443C182.281 359.443 182.172 359.698 182.271 359.901C182.302 359.969 182.323 360.042 182.359 360.109C182.302 360.219 182.302 360.349 182.38 360.49C184.115 363.49 183.875 366.813 184.594 370.083C185.182 372.729 186.682 375.063 188.495 377.047C190.641 379.401 193.047 381.505 195.182 383.87C197.427 386.365 199.391 389.089 201.526 391.672C201.719 391.911 201.969 391.932 202.177 391.849C203.375 393.354 204.849 394.542 206.516 395.031C206.786 395.104 207.036 394.792 206.885 394.552C205.641 392.609 203.771 391.193 202.536 389.198C201 386.724 200.37 383.948 200.891 381.068C201.609 377.146 203.552 373.635 203.573 369.677C208.495 372.568 212.036 377.417 213.49 382.964C214.38 386.375 214.349 389.677 213.771 393.125C213.401 395.323 213.172 397.297 214.328 399.313C214.458 399.542 214.87 399.391 214.76 399.13C213.563 396.109 215.167 392.297 215.307 389.125C215.448 385.943 215.068 382.745 214.01 379.74ZM199.016 382.422C198.135 379.74 196.938 377.099 195.661 374.823C193.484 370.943 190.792 367.25 187.271 364.49C187.172 364.417 187.021 364.547 187.13 364.63C190.542 367.599 193.167 371.073 195.021 375.193C195.203 375.599 195.38 376.01 195.552 376.417C194.552 375.172 193.234 373.734 191.75 373.167C191.651 373.135 191.552 373.266 191.609 373.339C192.536 374.583 193.875 375.552 194.901 376.74C195.531 377.484 196.12 378.276 196.667 379.094C197.078 380.141 197.479 381.198 197.854 382.266C198.156 383.13 198.406 384.01 198.682 384.896C196.26 381.885 193.438 379.172 190.75 376.38C188.359 373.917 186.75 371.443 185.854 368.109C185.135 365.406 184.807 362.714 183.286 360.339C183.391 360.25 183.62 360.198 184.005 360.188C185.203 360.151 186.599 360.646 187.708 361.068C190.859 362.276 193.047 364.63 194.714 367.5C197.099 371.589 198.604 376.557 199.125 381.385C199.083 381.734 199.052 382.073 199.016 382.422Z" fill="white"/>
<path d="M211.526 397.354C210.958 395.901 209.958 394.703 209.292 393.297C209.109 392.917 208.953 392.536 208.802 392.141C208.781 392.01 208.771 391.88 208.76 391.76C208.661 390.365 208.953 389.016 209.281 387.672C209.312 387.521 209.12 387.432 209.031 387.563C208.62 388.188 208.281 388.99 208.073 389.865C207.833 388.927 207.635 387.969 207.505 387.01C206.995 383.313 207.854 379.38 206.687 375.828C206.578 375.51 206.135 375.641 206.187 375.969C206.589 378.365 205.979 380.849 205.948 383.25C205.927 384.599 206 385.964 206.167 387.302C205.62 386.651 204.969 386.115 204.151 385.786C204.073 385.755 204.031 385.875 204.094 385.917C205.25 386.625 205.75 387.75 206.307 388.927C206.359 389.047 206.417 389.177 206.479 389.297C207.057 392.297 208.224 396.229 210.885 397.865C211.177 398.047 211.667 397.724 211.526 397.354Z" fill="white"/>
<path d="M324.005 439.76C320.552 434.203 311.026 437.844 305.917 437.474C297.594 436.859 291.286 431.969 289.031 423.969C288.745 422.974 287.078 423.12 287.167 424.219C287.719 430.911 293.432 436.188 299.51 438.193C303.073 439.37 306.896 439.531 310.594 439.073C312.719 438.813 314.828 438.354 316.99 438.333C319.526 438.313 321.38 439.052 323.615 440.13C323.865 440.25 324.156 440.01 324.005 439.76Z" fill="white"/>
<path d="M322.557 431.99C320.964 429.229 319.016 426.615 316.703 424.417C314.536 422.354 312.062 420.698 309.24 419.682C306.833 418.823 303.401 417.974 300.969 419.141C300.818 419.214 300.849 419.49 301.026 419.521C303.552 420.031 306.047 419.76 308.542 420.698C311.375 421.766 313.927 423.51 316.094 425.615C318.01 427.479 319.714 429.594 321.172 431.839C322.906 434.484 323.406 437.229 324.484 440.109C324.516 440.208 324.646 440.208 324.682 440.109C325.552 437.396 323.885 434.286 322.557 431.99Z" fill="white"/>
<path d="M318.437 429.698C317.13 428.786 315.625 428.25 314.036 428.052C313.109 427.932 312.203 427.948 311.302 427.693C309.37 426.333 307.354 425.156 305.328 424.318C300.49 422.323 295.187 422.396 290.062 422.745C289.672 422.771 289.661 423.37 290.062 423.37C292.156 423.344 294.292 423.344 296.427 423.49C298.214 424.297 299.839 425.125 301.276 426.625C302.495 427.891 303.302 429.745 304.99 430.474C305.156 430.552 305.276 430.344 305.135 430.234C303.203 428.75 302.505 426.302 300.568 424.776C300.078 424.391 299.552 424.042 299.01 423.75C301.297 424.068 303.531 424.63 305.625 425.646C310.016 427.76 313.448 431.401 317.672 433.776C317.911 433.906 318.167 433.594 317.969 433.396C316.365 431.771 314.526 430.115 312.562 428.62C313.437 428.75 314.328 428.76 315.187 428.99C316.245 429.276 317.24 429.755 318.307 430.016C318.5 430.063 318.589 429.807 318.437 429.698Z" fill="white"/>
<path d="M175.135 414.745C175.089 414.682 174.958 414.703 174.969 414.792C175.823 421.146 174.167 427.411 167.833 429.964C167.214 427.99 166.448 426.026 165.49 424.208C163.943 421.255 162.234 419.021 163.911 415.672C164.599 414.302 165.969 412.391 166.667 410.495C167.443 412.448 168.271 414.375 168.719 416.49C169.438 419.922 169.411 423.313 169.198 426.792C169.188 426.911 169.37 426.922 169.401 426.823C170.417 423.51 170.469 420 169.906 416.589C169.49 414.047 168.641 410.964 167.094 408.677C167.156 407.651 166.885 406.682 166.016 405.865C165.688 405.547 165.099 405.766 165.099 406.245C165.109 407.521 165.286 408.667 164.901 409.917C164.542 411.073 163.932 412.099 163.344 413.135C162.406 414.781 161.479 416.469 161.536 418.422C161.589 420.297 162.604 421.906 163.583 423.453C165.078 425.797 166.255 428.12 167.016 430.813C167.094 431.073 167.396 431.271 167.672 431.182C174.068 428.958 179.036 421.198 175.135 414.745Z" fill="white"/>
<path d="M321.682 362.516C321.651 362.516 321.651 362.573 321.682 362.573C321.719 362.573 321.719 362.516 321.682 362.516Z" fill="white"/>
<path d="M336.776 301.344C343.094 301.224 349.281 302.016 355.344 303.911C365.734 307.109 373.115 313.438 376.839 322.172C381.526 332.885 380.26 346.943 373.583 360.5C362.75 382.625 341.688 402.026 314.646 415.203C297.224 423.573 271.932 432.089 249.74 425.578C239.495 422.542 232.12 416.208 228.708 407.323C224 395.531 226.464 379.281 234.823 364.917L237.167 366.255C229.099 379.839 226.932 395.161 231.161 406.344C234.406 414.615 240.849 420.198 250.469 423.094C271.724 429.474 296.406 421.109 313.37 412.906C339.969 400.031 360.417 381.115 371.099 359.453C377.479 346.521 378.604 333.385 374.245 323.281C370.844 315.172 364.099 309.594 354.328 306.542C328.089 298.411 298.125 312.427 277.568 325.635L276.13 323.349C292.724 312.698 314.875 301.766 336.776 301.344Z" fill="white"/>
<path d="M276.422 323.203L277.859 325.495C271.922 329.318 265.234 334.385 259.917 338.964L258.182 336.995C263.479 332.25 270.323 327.182 276.422 323.203Z" fill="white"/>
<path d="M351.922 302.901C355.797 304.208 358.63 306.781 360.255 310.76C363.807 319.021 361.271 330.802 357.411 338.901C347.323 359.469 325.495 379.349 297.385 393.318C283.635 400.068 248.635 409.089 233.828 401.354C229.776 399.12 227.25 395.922 226.693 391.62L229.307 391.26C229.844 394.651 231.74 397.234 235.016 399.021C249.203 406.453 282.818 397.615 296.266 391.031C323.917 377.375 345.448 357.964 355.234 337.865C358.797 330.542 361.193 319.229 357.969 311.88C356.672 308.667 354.318 306.552 351.214 305.526L351.922 302.901Z" fill="white"/>
<path d="M253.714 385.068L256.057 386.411C252.932 392.021 250.411 397.786 248.531 403.839L246.047 402.964C247.927 396.766 250.589 390.844 253.714 385.068Z" fill="white"/>
<path d="M353.599 325.078C355.604 325.036 357.609 325.005 359.615 325.115L359.516 327.74C330.333 326.615 300.62 337.995 277.896 358.661L276.161 356.687C297.823 336.979 325.682 325.635 353.599 325.078Z" fill="white"/>
<mask id="mask1_24_50" style="mask-type:luminance" maskUnits="userSpaceOnUse" x="136" y="328" width="142" height="125">
<path d="M136 328H277.333V453H136V328Z" fill="white"/>
</mask>
<g mask="url(#mask1_24_50)">
<path d="M162.682 329.146C187.51 328.656 213.443 345.125 231.312 359.589L229.656 361.625C211.156 346.552 183.667 329.188 158.422 332C151.49 332.755 146 335.641 142.698 340.49C138.797 345.974 137.87 353.703 140.036 362.302C144.714 380.578 158.193 399.141 180.156 417.536C203.214 436.839 225.177 447.521 245.422 449.286C254.849 450.026 263.13 447.703 268.13 442.823C272.219 438.891 273.969 433.604 273.526 426.974L276.141 426.771C276.583 434.016 274.547 440.229 270.016 444.797C264.417 450.313 255.359 452.958 245.312 452.068C224.448 450.313 202.026 439.49 178.49 419.74C156.057 400.885 142.411 381.865 137.578 363.13C135.234 353.917 136.302 345.406 140.495 339.151C144.245 333.677 150.359 330.464 158.047 329.547C159.599 329.354 161.135 329.167 162.682 329.146Z" fill="white"/>
</g>
<path d="M231.313 359.74C247.776 373.156 259.771 386.802 267.771 401.615L265.484 402.891C257.635 388.38 245.958 375.031 229.656 361.766L231.313 359.74Z" fill="white"/>
<path d="M184.198 301.714C200.083 301.396 214.568 308.37 223.599 312.818C245.552 323.349 264.208 338.411 277.521 356.208C285.76 367.161 291.859 379.073 295.807 391.802L293.354 392.62C289.563 380.349 283.474 368.589 275.552 357.943C262.401 340.448 244.214 325.693 222.563 315.302C209.792 309.224 186.12 297.656 163.833 309.823L162.562 307.531C169.729 303.542 177.104 301.854 184.198 301.714Z" fill="white"/>
<path d="M161.646 331.479C164.651 359.193 187.839 384.818 232.76 409.714L231.422 412.052C185.724 386.714 162.068 360.479 158.875 331.682L161.646 331.479Z" fill="white"/>
<path d="M287.016 422.844L289.203 424.349C282.469 434.823 273.896 446.104 260.865 450.365L260.047 447.911C272.302 443.813 280.573 433.005 287.016 422.844Z" fill="white"/>
<path d="M162.406 307.391L163.833 309.526C148.906 319.391 145.979 327.312 140.453 344.406L137.969 343.531C143.646 326.432 146.87 317.724 162.406 307.391Z" fill="white"/>
<path d="M319.495 395.813C356.865 374.094 377.047 340.828 364.786 321.625C364.474 321.016 363.995 320.557 363.677 320.099C363.698 321.328 364.198 323.172 364.219 324.406C364.307 328.875 364.057 331.662 362.323 337.714C359.297 348.26 338.875 377.375 312.49 392.698C285.182 408.667 256.286 414.016 237.969 408.208C254.99 418.542 288.224 414.026 319.495 395.813Z" fill="white"/>
<path d="M161.297 321.755C164.651 319.839 166.776 318.094 172.474 317.526C191.411 315.302 226.51 326.964 242.458 337.906C269.198 356.208 283.724 381.078 284.203 381.687C280.313 364.021 262.302 342.464 237 326.911C202.797 305.974 167.901 304.031 159.161 322.422C158.865 322.891 158.714 323.51 158.422 324.13C159.323 323.651 160.38 322.401 161.297 321.755Z" fill="white"/>
<path d="M142.76 362.052C144.036 368.75 146.609 374.854 149.802 380.51C151.099 382.661 152.396 384.818 153.911 386.953C151.87 380.281 150.682 373.286 150.781 365.557C150.87 360.031 151.151 351.469 154.812 347.578C153.667 344.031 153.068 340.339 153.016 336.469C152.984 335.781 152.526 335.391 151.99 335.542C151.88 335.542 151.771 335.552 151.557 335.563C142.51 338.865 140.771 351.51 142.76 362.052Z" fill="white"/>
<path d="M238.188 442.943C228.01 443.141 217.901 439.172 208.562 434.573C219.349 441.766 233.505 447.661 246.609 447.094C254.172 447.26 261.547 445.724 267.01 440.979C269.417 438.156 271.354 434.406 272.031 429.615C272.031 429.615 272.031 429.615 272.031 429.458V429.307C272.031 429.156 272.031 429.156 272.021 429.005C267.094 429.724 262.161 429.656 257.365 428.979C256.615 438.563 247.438 442.604 238.188 442.943Z" fill="white"/>
<path d="M236.172 371.531C235.724 372.318 235.281 373.089 234.833 374.026C234.234 374.964 233.797 376.057 233.349 377.146C233.068 378.234 232.62 379.161 232.328 380.25C231.161 383.672 230.146 387.24 230.224 390.943C230.375 390.792 230.531 390.781 230.531 390.625C231.693 387.052 234.255 384.229 237.776 382.464C240.37 381.177 244.052 379.719 246.995 380.427C247.146 380.427 247.448 380.417 247.604 380.26C245.87 378.594 243.984 376.786 242.255 375.12C240.521 373.448 238.646 371.948 236.911 370.443C236.781 370.901 236.479 371.214 236.172 371.531Z" fill="white"/>
<path d="M275.094 350.234C275.245 350.385 275.245 350.385 275.411 350.542C275.875 351 276.51 351.443 276.979 352.057C277.13 352.057 277.13 352.057 277.281 352.042C273.406 335.141 288.896 322.953 301.984 313.286C301.984 313.286 301.833 313.286 301.833 313.438C301.677 313.594 301.526 313.755 301.219 313.755C288.094 320.958 276.052 328.448 264.198 337.318C264.047 337.474 263.891 337.635 263.901 337.786C267.99 341.734 271.922 345.667 275.094 350.234Z" fill="white"/>
<path d="M344.521 318.781C342.854 320.047 341.016 320.849 339.182 321.656C335.359 323.432 331.219 324.74 327.078 325.906C337.365 323.542 347.984 322.104 357.88 323.141C357.88 322.99 357.87 322.833 357.87 322.833C358.667 316.188 356.995 310.042 350.917 306.615C350.766 306.615 350.766 306.464 350.599 306.464C350.599 306.615 350.615 306.771 350.458 306.932C350.396 311.719 348.63 315.771 344.521 318.781Z" fill="white"/>
<path d="M170.377 196.74C163.157 196.74 157.457 195.473 153.277 192.94C149.16 190.343 147.102 186.955 147.102 182.775C147.102 178.152 149.382 173.813 153.942 169.76C158.819 165.453 165.215 162.54 173.132 161.02C174.209 160.83 175.349 160.672 176.552 160.545C177.755 160.418 178.959 160.355 180.162 160.355C187.509 160.355 192.48 162.128 195.077 165.675C195.33 165.992 195.457 166.403 195.457 166.91C195.457 167.923 195.172 168.082 194.602 167.385C192.322 164.155 187.35 162.54 179.687 162.54C177.28 162.54 175.127 162.73 173.227 163.11C166.577 164.377 161.289 166.878 157.362 170.615C153.625 174.162 151.757 177.93 151.757 181.92C151.757 185.72 153.467 188.76 156.887 191.04C160.244 193.32 164.804 194.46 170.567 194.46C176.014 194.46 181.049 193.795 185.672 192.465C190.295 191.198 194.539 189.393 198.402 187.05C204.735 183.187 207.902 178.057 207.902 171.66C207.902 164.313 203.31 157.695 194.127 151.805C191.784 150.285 189.82 148.955 188.237 147.815C186.654 146.612 185.419 145.598 184.532 144.775C181.175 141.545 179.497 138.125 179.497 134.515C179.497 133.565 179.592 132.678 179.782 131.855C180.669 127.738 183.424 124.413 188.047 121.88C192.29 119.537 196.882 118.365 201.822 118.365C207.459 118.365 211.734 119.347 214.647 121.31C216.737 122.703 217.782 124.825 217.782 127.675C217.782 129.512 217.244 131.222 216.167 132.805C215.154 134.325 213.824 135.085 212.177 135.085C210.974 135.085 209.897 134.61 208.947 133.66C208.124 132.837 207.712 131.855 207.712 130.715C207.712 127.675 209.2 126.155 212.177 126.155C213.95 126.155 215.027 126.725 215.407 127.865C215.724 126.155 215.059 124.667 213.412 123.4C210.815 121.373 207.427 120.36 203.247 120.36C198.877 120.36 194.887 121.595 191.277 124.065C187.414 126.662 185.482 129.67 185.482 133.09C185.482 137.523 189.535 142.083 197.642 146.77C208.979 153.23 214.647 160.703 214.647 169.19C214.647 172.927 213.444 176.537 211.037 180.02C208.63 183.567 205.432 186.48 201.442 188.76C192.322 194.08 181.967 196.74 170.377 196.74Z" fill="white"/>
<path d="M290.376 272.04C288.856 272.04 288.096 270.805 288.096 268.335C288.096 263.712 290.63 256.08 295.696 245.44C295.063 230.303 292.055 218.808 286.671 210.955C282.175 204.432 276.855 201.17 270.711 201.17C266.595 201.17 263.048 202.595 260.071 205.445C257.095 208.295 255.606 211.747 255.606 215.8C255.606 217.763 255.986 219.758 256.746 221.785C259.406 228.182 263.206 232.773 268.146 235.56C268.526 235.75 268.621 236.035 268.431 236.415C268.115 236.732 267.83 236.795 267.576 236.605C261.053 233.058 256.493 228.118 253.896 221.785C253.263 220.138 252.788 218.555 252.471 217.035C252.155 215.452 251.996 213.9 251.996 212.38C251.996 207.06 253.801 202.69 257.411 199.27C260.831 195.913 265.17 194.235 270.426 194.235C279.166 194.235 286.228 198.795 291.611 207.915C296.361 215.958 299.116 225.933 299.876 237.84C302.473 233.533 305.133 229.543 307.856 225.87C310.643 222.133 313.556 218.713 316.596 215.61C323.69 208.327 330.72 203.545 337.686 201.265C338.193 201.075 338.763 200.917 339.396 200.79C340.093 200.663 340.853 200.537 341.676 200.41C341.55 200.283 342.531 200.125 344.621 199.935C344.938 199.872 345.255 199.84 345.571 199.84C345.951 199.84 346.268 199.84 346.521 199.84C352.031 199.84 354.786 201.93 354.786 206.11C354.786 207.63 354.311 209.055 353.361 210.385C352.285 211.842 350.923 212.57 349.276 212.57C347.883 212.57 346.806 212.127 346.046 211.24C345.223 210.417 344.811 209.435 344.811 208.295C344.811 205.255 346.3 203.735 349.276 203.735C350.733 203.735 351.778 204.305 352.411 205.445C352.158 203.672 350.606 202.627 347.756 202.31C343.766 201.93 339.491 205.445 334.931 212.855C331.005 219.315 327.553 227.422 324.576 237.175C321.726 246.548 320.301 254.307 320.301 260.45C320.301 265.77 321.505 268.43 323.911 268.43C325.621 268.43 327.711 266.847 330.181 263.68C332.588 260.64 335.438 255.7 338.731 248.86C338.985 248.227 339.301 247.847 339.681 247.72H339.776C340.03 247.72 340.156 247.942 340.156 248.385C340.156 248.892 340.03 249.398 339.776 249.905C336.293 256.998 334.14 261.147 333.316 262.35C330.15 267.353 327.015 270.045 323.911 270.425C323.721 270.425 323.531 270.425 323.341 270.425C323.151 270.488 322.961 270.52 322.771 270.52C320.491 270.52 318.37 269.697 316.406 268.05C313.62 265.58 312.226 261.812 312.226 256.745C312.226 250.728 314.285 243.223 318.401 234.23C321.758 227.073 325.748 220.233 330.371 213.71C334.235 208.263 338.035 204.337 341.771 201.93C334.805 203.893 327.236 209.055 319.066 217.415C312.163 224.508 305.798 232.868 299.971 242.495C300.098 255.478 297.755 264.978 292.941 270.995C292.371 271.692 291.516 272.04 290.376 272.04ZM241.831 278.025C239.171 278.025 237.113 277.265 235.656 275.745C234.39 274.478 233.756 272.863 233.756 270.9C233.756 269.127 234.326 267.575 235.466 266.245C236.543 264.978 237.968 264.345 239.741 264.345C240.945 264.345 241.99 264.788 242.876 265.675C243.573 266.435 243.921 267.385 243.921 268.525C243.921 270.045 243.351 271.28 242.211 272.23C241.198 273.18 240.058 273.655 238.791 273.655C237.271 273.655 236.1 273.053 235.276 271.85C235.403 272.863 235.973 273.718 236.986 274.415C238.063 275.112 239.266 275.46 240.596 275.46C241.23 275.46 241.863 275.365 242.496 275.175C249.273 273.275 256.398 266.783 263.871 255.7C267.608 250.127 271.091 243.92 274.321 237.08C277.615 230.177 280.623 222.64 283.346 214.47C283.726 213.33 284.075 212.76 284.391 212.76C284.708 212.76 284.898 212.982 284.961 213.425C285.025 213.868 285.025 214.28 284.961 214.66C283.125 221.753 281.32 228.023 279.546 233.47C277.836 238.853 276.158 243.413 274.511 247.15C266.848 264.44 257.601 274.51 246.771 277.36C245.061 277.803 243.415 278.025 241.831 278.025Z" fill="white"/>
<path d="M232.1 201.025C228.5 201.025 225.68 200.17 223.64 198.46C221.78 196.87 220.85 194.905 220.85 192.565C220.85 189.895 221.96 187.495 224.18 185.365C226.67 182.995 229.91 181.615 233.9 181.225C233.06 180.115 232.64 178.84 232.64 177.4C232.64 174.34 234.245 171.82 237.455 169.84C240.095 168.19 242.96 167.365 246.05 167.365C246.86 167.365 247.595 167.425 248.255 167.545C248.915 167.665 249.485 167.89 249.965 168.22C251.135 168.88 251.72 169.915 251.72 171.325C251.72 172.165 251.45 172.93 250.91 173.62C250.37 174.31 249.725 174.655 248.975 174.655C248.405 174.655 247.91 174.445 247.49 174.025C247.07 173.605 246.86 173.095 246.86 172.495C246.89 171.145 247.61 170.47 249.02 170.47C249.83 170.47 250.325 170.74 250.505 171.28C250.535 171.19 250.55 171.1 250.55 171.01C250.55 170.92 250.55 170.83 250.55 170.74C250.55 169.3 249.47 168.58 247.31 168.58C244.4 168.58 241.535 169.81 238.715 172.27C238.235 172.66 237.785 173.125 237.365 173.665C236.975 174.205 236.6 174.775 236.24 175.375C235.43 176.755 235.025 178.06 235.025 179.29C235.025 179.95 235.16 180.55 235.43 181.09C236.21 181.06 236.87 181.045 237.41 181.045C237.95 181.015 238.37 181 238.67 181C240.41 181 241.28 181.51 241.28 182.53C241.28 183.4 240.53 183.835 239.03 183.835C237.38 183.835 235.865 183.175 234.485 181.855C231.665 182.275 229.385 183.67 227.645 186.04C226.055 188.17 225.26 190.54 225.26 193.15C225.26 195.19 225.815 196.885 226.925 198.235C228.215 199.705 229.94 200.44 232.1 200.44C235.04 200.44 237.62 199.42 239.84 197.38C240.77 196.54 241.535 195.625 242.135 194.635C242.735 193.615 243.035 192.655 243.035 191.755C243.035 191.185 242.885 190.66 242.585 190.18C242.315 189.67 241.865 189.25 241.235 188.92C240.125 188.29 238.745 187.975 237.095 187.975C235.925 187.975 234.8 188.155 233.72 188.515C232.64 188.845 231.755 189.34 231.065 190C230.375 190.63 230.03 191.425 230.03 192.385C230.03 193.765 231.035 194.98 233.045 196.03C233.315 196.15 233.45 196.39 233.45 196.75C233.45 196.93 233.375 197.02 233.225 197.02C233.135 197.02 233.075 197.005 233.045 196.975C229.865 195.265 228.275 193.33 228.275 191.17C228.275 189.4 229.13 188.065 230.84 187.165C232.55 186.265 234.725 185.815 237.365 185.815C238.055 185.815 238.895 185.845 239.885 185.905C240.905 185.965 241.97 185.995 243.08 185.995C244.22 185.995 245.36 185.935 246.5 185.815C247.64 185.695 248.675 185.44 249.605 185.05C251.975 184.06 253.16 182.95 253.16 181.72C253.16 181.27 253.025 180.85 252.755 180.46C252.485 180.07 252.53 179.875 252.89 179.875C253.04 179.875 253.16 179.95 253.25 180.1C253.7 180.76 253.925 181.42 253.925 182.08C253.925 183.61 252.86 184.945 250.73 186.085C248.6 187.225 246.245 187.765 243.665 187.705C244.775 188.635 245.33 189.805 245.33 191.215C245.33 193.525 244.085 195.7 241.595 197.74C238.925 199.93 235.76 201.025 232.1 201.025ZM239.03 183.07C240.02 183.07 240.515 182.89 240.515 182.53C240.515 182.05 240.05 181.795 239.12 181.765C238.79 181.735 238.46 181.72 238.13 181.72C237.8 181.69 237.47 181.675 237.14 181.675C236.93 181.675 236.705 181.69 236.465 181.72C236.255 181.72 236.03 181.72 235.79 181.72C236.57 182.62 237.65 183.07 239.03 183.07Z" fill="white"/>
</svg>
